<svg id="Layer_1" data-name="Layer 1" xmlns="http://www.w3.org/2000/svg"><defs><style>.cls-1{fill:none;}.cls-1,.cls-2{stroke:#231f20;stroke-miterlimit:10;}.cls-2{fill:#fff;}</style></defs><path class="cls-1" d="M19.81,28.3Q45,21.22,46.15,24.08q1.31,3.12-26.09,18.14" transform="translate(-19.3 -20.6)"/><path class="cls-1" d="M19.31,45c5.42.12,30.07.76,30.57,5.22.52,4.67-25.62,11-30.32,12.18" transform="translate(-19.3 -20.6)"/><path class="cls-1" d="M23,22.34,22.3,67.07" transform="translate(-19.3 -20.6)"/><path class="cls-1" d="M68.82,71.8" transform="translate(-19.3 -20.6)"/><path class="cls-1" d="M104.48,30.92C90.35,42.9,84.16,55,87.52,60c3.49,5.25,16.81,2.29,19.23,1.72" transform="translate(-19.3 -20.6)"/><path class="cls-1" d="M132.64,27.91c-20,1.08-25.89,3.14-26.09,5.22-.33,3.34,14.07,5.24,15.16,12.43s-12,12.75-10.69,16.65c.84,2.51,7.52,3.8,28.83.74" transform="translate(-19.3 -20.6)"/><path class="cls-1" d="M169.67,24.58C174.86,61.14,178,72.18,179.86,72c2.88-.2,2.35-25.84,7-26.34S196.5,69.05,199,68.56c3.18-.62-3.23-39.77,0-40.5,1.57-.36,5.44,8.45,13.17,33.55" transform="translate(-19.3 -20.6)"/><path class="cls-1" d="M194,41.23l21.12-2.74" transform="translate(-19.3 -20.6)"/><path class="cls-1" d="M210.43,22.09c3.3,10.52,7.49,20.65,11.68,20.38,5.93-.38,9.22-21.43,9.44-21.37s-2,10-10.44,46" transform="translate(-19.3 -20.6)"/><path class="cls-1" d="M236.27,71.05c-3.15-39.18-1.73-47.88.25-48.21,4.74-.81,15.25,45.46,18.89,44.73,2.54-.51.1-23.57-2.48-43.74" transform="translate(-19.3 -20.6)"/><path class="cls-1" d="M282.58,26.54c-20,1.08-25.89,3.14-26.09,5.22-.33,3.35,14.07,5.24,15.16,12.43s-12,12.75-10.69,16.65c.84,2.52,7.52,3.8,28.83.74" transform="translate(-19.3 -20.6)"/><path class="cls-1" d="M46.4,38.74c.45-.68,8.39-12.39,16.44-7A17,17,0,0,1,68,38.24" transform="translate(-19.3 -20.6)"/><path class="cls-1" d="M50.62,23.83V67.32" transform="translate(-19.3 -20.6)"/><path class="cls-1" d="M62.85,26.07c4.48,24,10.48,41.3,15.41,41S87,49.14,88.7,25.57" transform="translate(-19.3 -20.6)"/><path class="cls-2" d="M414.74-358.86" transform="translate(-19.3 -20.6)"/></svg>
