<svg id="Layer_1" data-name="Layer 1" xmlns="http://www.w3.org/2000/svg"><defs><style>.cls-1{fill:#fff;}.cls-1,.cls-2{stroke:#231f20;stroke-miterlimit:10;}.cls-2{fill:none;}</style></defs><path class="cls-1" d="M475.38-130" transform="translate(-15.61 -21.2)"/><path class="cls-2" d="M34.13,32Q13.26,58.1,16.56,61.64q2.72,2.91,21.77-9.44" transform="translate(-15.61 -21.2)"/><path class="cls-2" d="M45.94,62.3c0-2-.32-36.54,6.29-37.51,6.18-.9,15.07,27.87,16,31" transform="translate(-15.61 -21.2)"/><path class="cls-2" d="M39.64,47.21,63,29.9" transform="translate(-15.61 -21.2)"/><path class="cls-2" d="M72.23,25.65q-2.64,28.49,2.24,30.12Q78,57,85.5,44.1" transform="translate(-15.61 -21.2)"/><path class="cls-2" d="M64.83,29.79l15.5-.37" transform="translate(-15.61 -21.2)"/><path class="cls-2" d="M106.47,23.6c5.86,34.79,9.29,41.59,11.28,41.45s4.35-7,5.51-39.87" transform="translate(-15.61 -21.2)"/><path class="cls-2" d="M128.51,21.24l.78,40.93" transform="translate(-15.61 -21.2)"/><path class="cls-2" d="M133.23,51.41c11.72,2.76,15.56,1.79,16.53,0,2.61-4.82-14.93-16.77-12.07-22.82,1.47-3.13,7.77-3.36,13.64-2.89" transform="translate(-15.61 -21.2)"/><path class="cls-2" d="M154.74,21.24q-3,35.27,4.2,37.51,4.74,1.48,13.9-11.28" transform="translate(-15.61 -21.2)"/><path class="cls-2" d="M148.44,36.72l11-4.72" transform="translate(-15.61 -21.2)"/><path class="cls-2" d="M170.23,35.53l14.1.27" transform="translate(-15.61 -21.2)"/><path class="cls-2" d="M195.5,72c-9.9-27.52-8.3-35.9-4.79-38.3,4.9-3.35,17.11,2.48,17.29,7.71.15,4.39-8.12,9.24-21,12" transform="translate(-15.61 -21.2)"/><path class="cls-2" d="M209.6,32.34c3,13.93,6.49,27.92,8.77,27.66,1.07-.12,2.74-3.45,2.4-27.92" transform="translate(-15.61 -21.2)"/><path class="cls-2" d="M230.1,61.23c-8.68-13.83-8-27.33-1.87-31.91,1-.7,4.37-2.94,11.44-1.33" transform="translate(-15.61 -21.2)"/><path class="cls-2" d="M234.58,59.9C229.69,50,231,39.07,237.44,33a19.68,19.68,0,0,1,12.42-5" transform="translate(-15.61 -21.2)"/><path class="cls-2" d="M265.2,49.82c10.87,1.57,18.94-1,19.94-4.79,1.27-4.85-8.41-13.49-13.83-11.7-6.55,2.17-10.68,20.87-2.12,26.86,4.74,3.33,12.73,2.29,19.41-2.66" transform="translate(-15.61 -21.2)"/><path class="cls-2" d="M299.5,62.59c-12.63-9.29-15.34-22.68-10.63-28.73,3.95-5.08,12.72-4.4,14.36-4.25" transform="translate(-15.61 -21.2)"/><path class="cls-2" d="M246.84,64c-9.4-10.42-8.87-23.88-2.39-29.52,5.72-5,14.75-2.72,15.95-2.4" transform="translate(-15.61 -21.2)"/></svg>
