<svg id="Layer_1" data-name="Layer 1" xmlns="http://www.w3.org/2000/svg"><defs><style>.cls-1{fill:none;stroke:#231f20;stroke-miterlimit:10;}</style></defs><path class="cls-1" d="M34.52,24.69C20.64,33.88,13.6,73.74,21.46,81.08s34.33-14.42,36.42-34.6a25.17,25.17,0,0,0-1.8-12.24C52.21,24.29,42.59,19.35,34.52,24.69Z" transform="translate(-17.68 -13.24)"/><path class="cls-1" d="M33,13.29l-8.25,81" transform="translate(-17.68 -13.24)"/><path class="cls-1" d="M94.73,27.35" transform="translate(-17.68 -13.24)"/><path class="cls-1" d="M58.42,46.42C78,27.22,84.51,24.77,86.73,26.36c4,2.9-1.22,22.75-12.6,27.11-6,2.32-11.92-.45-12.3.59s5.67,5,33.2,17.12" transform="translate(-17.68 -13.24)"/><path class="cls-1" d="M95,21.81" transform="translate(-17.68 -13.24)"/><path class="cls-1" d="M197.59,48.29" transform="translate(-17.68 -13.24)"/><path class="cls-1" d="M71.13,30.65q.28,22.49.59,45" transform="translate(-17.68 -13.24)"/><path class="cls-1" d="M116.13,28.7c3,35.91,10.92,62,19.09,62.33s17.92-25.19,23.55-60.78" transform="translate(-17.68 -13.24)"/><path class="cls-1" d="M167.26,29.4q1.08,27.14,2.18,54.26" transform="translate(-17.68 -13.24)"/><path class="cls-1" d="M174.08,56.47c20.71,15.75,27.77,18.07,29.72,16.21,4.62-4.39-19.93-31.74-12.86-41.2,4.19-5.61,17.87-2.72,30.46,1.4" transform="translate(-17.68 -13.24)"/><path class="cls-1" d="M231.15,19.06c-8.76,31.36-7.35,55,2,59.08C243,82.43,260,64.24,263.56,60.36" transform="translate(-17.68 -13.24)"/><path class="cls-1" d="M211.38,63.22l27.83-28.59" transform="translate(-17.68 -13.24)"/></svg>
