<svg id="Layer_1" data-name="Layer 1" xmlns="http://www.w3.org/2000/svg"><defs><style>.cls-1{fill:#fff;}.cls-1,.cls-2{stroke:#231f20;stroke-miterlimit:10;}.cls-2{fill:none;}</style></defs><path class="cls-1" d="M475.38-113.73" transform="translate(-6.84 -14.46)"/><path class="cls-2" d="M13.34,14.78,16,63.69" transform="translate(-6.84 -14.46)"/><path class="cls-2" d="M7,28.89q27.9-12.12,29.71-9,1.92,3.3-25.51,23.71" transform="translate(-6.84 -14.46)"/><path class="cls-2" d="M50.85,14.48,53,57.39" transform="translate(-6.84 -14.46)"/><path class="cls-2" d="M87.46,15.68c-15.34,15.15-15.92,33.59-9,39.61,5.5,4.79,17.39,3.17,28.2-3.6" transform="translate(-6.84 -14.46)"/><path class="cls-2" d="M115.06,64c.14-5.39,1.37-48.06,9.31-48.91,7.48-.79,17.07,36,18.6,42" transform="translate(-6.84 -14.46)"/><path class="cls-2" d="M143,29.49l-39.31,10.8" transform="translate(-6.84 -14.46)"/><path class="cls-2" d="M152.87,45.39c15.82,10.22,21.15,11,22.81,9.3,4.67-4.76-18.32-31-13.21-36.61,2.94-3.19,13.84,1.91,23.71,7.51" transform="translate(-6.84 -14.46)"/><path class="cls-2" d="M187.38,47.19c13.23,9.91,18.4,11.42,20.1,9.9,4.5-4-15.14-28.91-9.3-35.11,3-3.17,11.53-.24,20.1,3.91" transform="translate(-6.84 -14.46)"/><path class="cls-2" d="M241.69,21.08c-10.5,3.5-12.63,38.4-3,42.91,6.65,3.12,24.23-5.78,24.3-21.3C263.06,28.54,248.54,18.81,241.69,21.08Z" transform="translate(-6.84 -14.46)"/></svg>
