<svg width="119" height="43" fill="none" xmlns="http://www.w3.org/2000/svg">
<path d="M81.1568 32C76.1568 28 65.0069 24 59.1568 24C53.5368 24.04 43.1569 28 38.1569 32C33.1569 36 30.1568 40 25.1568 42C20.1568 44 13.1568 42 8.15685 40C4.65684 38.7378 1.65686 37 0.656857 35.5C-0.343143 34 -0.34315 30 1.65685 29C3.25685 28.2 5.99018 29.3333 7.15685 30C10.1568 32 17.1568 32 23.1568 29C29.1568 26 33.1569 18 35.1569 9C37.1569 0 59.1568 0 59.1568 0C59.1568 0 82.1568 0 84.1568 9C86.1568 18 90.1568 26 96.1568 29C102.157 32 109.157 32 112.157 30C113.99 29.3333 117.857 28.4 118.657 30C119.657 32 119.657 33 119.157 35C118.757 36.6 113.657 39 111.157 40C106.157 42 99.1568 44 94.1568 42C89.1568 40 86.1568 36 81.1568 32Z" stroke="black" stroke-miterlimit="10"/>
</svg>
