<?xml version="1.0" encoding="utf-8"?>
<!-- Generator: Adobe Illustrator 23.0.1, SVG Export Plug-In . SVG Version: 6.00 Build 0)  -->
<svg version="1.1" id="Layer_1" xmlns="http://www.w3.org/2000/svg" xmlns:xlink="http://www.w3.org/1999/xlink" x="0px" y="0px"
	 viewBox="0 0 181 162" style="enable-background:new 0 0 181 162;" xml:space="preserve">
<style type="text/css">
	.st0{fill:none;stroke:#010101;stroke-linecap:round;stroke-linejoin:round;}
</style>
<g id="_x39_" inkscape:groupmode="lineset" inkscape:label="View Layer_LineSet" xmlns:inkscape="http://www.inkscape.org/namespaces/inkscape">
	
		<g id="strokes_8_" inkscape:groupmode="layer" inkscape:label="strokes" xmlns:inkscape="http://www.inkscape.org/namespaces/inkscape">
		<path class="st0" d="M113.8,28.5l-1.5-0.2l-1.5-0.2l-1.5-0.2l-1.5-0.2l-1.5-0.2l-1.5-0.2l-1.5-0.2l-1.5-0.2l-1.5-0.2l-0.3,0
			l-0.9-1.3L97.8,24l-0.9-1.3l-0.9-1.3l-0.9-1.3l-0.4-0.6"/>
		<path class="st0" d="M99.5,26.7l-1.5,0.3l-1.5,0.3l-1.5,0.3l-1.5,0.3L91.8,28l-1.5,0.3l-1.5,0.3l-1.5,0.3L85.6,29l-0.9,0.1l-1-1.2
			l-1-1.2l-1-1.2l-1-1.2l-1-1.2l-1-1.2"/>
		<path class="st0" d="M126.5,34.2l-1.4-0.6l-1.4-0.6l-1.4-0.6l-1.4-0.6l-1.4-0.6l-1.4-0.6l-1.4-0.6l-1.4-0.6l-1.3-0.6l-0.7-1.4
			l-0.7-1.4l-0.7-1.4l-0.7-1.4l-0.7-1.3"/>
		<path class="st0" d="M84.7,29.1l-1.4,0.7l-1.4,0.7l-1.4,0.7l-1.4,0.7l-1.4,0.7l-1.4,0.7l-1.4,0.7l-1.4,0.7L72,35.1l-1.4,0.7
			l-1.2-1l-1.2-1l-1.2-1l-1.2-1l-1.2-1l-1.2-1l-0.4-0.4"/>
		<path class="st0" d="M137,43.2l-1.2-1l-1.2-1l-1.2-1l-1.2-1l-1.2-1l-1.2-1l-1.2-1l-1.2-1l-1-0.8l-0.5-1.5l-0.5-1.5l-0.5-1.5
			l-0.5-1.5l-0.2-0.4"/>
		<path class="st0" d="M110.5,41.6l-1.6-0.2l-1.6-0.2l-1.6-0.2l-1.6-0.2l-1.6-0.2l-1.6-0.2l-1.6-0.2l-0.2,0v-1.6v-1.6v-1.6v-1.6
			v-1.6V31v-1.6v-1.6v-1.2"/>
		<path class="st0" d="M99.5,40.4l-1.5,0.3L96.4,41l-1.5,0.3l-1.5,0.3l-1.5,0.3l-1.5,0.3l-1.5,0.3l-0.6,0.1l-0.4-1.5l-0.4-1.5
			L87,37.9l-0.4-1.5l-0.4-1.5l-0.4-1.5l-0.4-1.5L85,30.3l-0.3-1.2"/>
		<path class="st0" d="M120.5,45.9l-1.4-0.6l-1.4-0.6l-1.4-0.6l-1.4-0.6l-1.4-0.6l-1.4-0.6l-1.3-0.6l0.4-1.5l0.4-1.5l0.4-1.5
			l0.4-1.5l0.4-1.5l0.4-1.5l0.4-1.5l0.4-1.5l0.2-1"/>
		<path class="st0" d="M70.5,35.8l-1.2,1l-1.2,1l-1.2,1l-1.2,1l-1.2,1l-1.2,1l-1.2,1L61,44l-1.2,1l-1.2,1l-0.5,0.4l-1.3-0.9
			l-1.3-0.9l-1.3-0.9L53,42.9L51.7,42l-1.3-0.9l-0.7-0.5"/>
		<path class="st0" d="M88.1,42.5l-1.4,0.7l-1.4,0.7l-1.4,0.7l-1.4,0.7l-1.4,0.7l-1.4,0.7l-1.4,0.7l-1,0.5l-0.8-1.4L75.7,45L75,43.7
			l-0.8-1.4L73.4,41l-0.8-1.4l-0.8-1.4l-0.8-1.4l-0.6-1"/>
		<path class="st0" d="M94.9,46.2l1-1.2l1-1.2l1-1.2l1-1.2l0.7-0.9"/>
		<path class="st0" d="M128.8,52.7l-1.2-1l-1.2-1l-1.2-1l-1.2-1l-1.2-1l-1.2-1l-1-0.9l0.7-1.4l0.7-1.4l0.7-1.4l0.7-1.4l0.7-1.4
			l0.7-1.4l0.7-1.4l0.7-1.4l0.3-0.5"/>
		<path class="st0" d="M104.1,47.1l1.2-1l1.2-1l1.2-1l1.2-1l1.2-1l0.5-0.4"/>
		<path class="st0" d="M85.4,47.9l0.7-1.4l0.7-1.4l0.7-1.4l0.6-1.3"/>
		<path class="st0" d="M144.7,54.7l-0.9-1.3l-0.9-1.3l-0.9-1.3l-0.9-1.3l-0.9-1.3l-0.9-1.3l-0.9-1.3l-0.9-1.3l-0.7-1.1l-0.4-1.5
			l-0.4-1.5l-0.4-1.5l-0.2-0.9"/>
		<path class="st0" d="M112.5,50.6l1.3-0.8l1.3-0.8l1.3-0.8l1.3-0.8l1.3-0.8l1.3-0.8"/>
		<path class="st0" d="M77.3,47.7l-1.2,1l-1.2,1l-1.2,1l-1.2,1l-1.2,1l-1.2,1L69,55l-1.1,1l-1.1-1.1l-1.1-1.1l-1.1-1.1l-1.1-1.1
			l-1.1-1.1l-1.1-1.1l-1.1-1.1l-1.1-1.1l-0.8-0.8"/>
		<path class="st0" d="M76.4,52.3l0.3-1.5l0.3-1.5l0.3-1.5"/>
		<path class="st0" d="M134.9,61.7l-0.9-1.3l-0.9-1.3l-0.9-1.3l-0.9-1.3l-0.9-1.3l-0.9-1.3l-0.8-1.2l1-1.2l1-1.2l1-1.2l1-1.2l1-1.2
			l1-1.2l1-1.2l1-1.2"/>
		<path class="st0" d="M58.2,46.4l-0.9,1.3L56.4,49l-0.9,1.3l-0.9,1.3l-0.9,1.3l-0.9,1.3L52,55.5l-0.9,1.3L50.2,58l-0.9,1.3
			l-0.6,0.8l-1.4-0.7l-1.4-0.7l-1.4-0.7l-1.4-0.7l-1.4-0.7L40.3,56l-0.9-0.5"/>
		<path class="st0" d="M119.5,56.3l1.5-0.6l1.5-0.6l1.5-0.6l1.5-0.6l1.5-0.6l1.5-0.6l0.5-0.2"/>
		<path class="st0" d="M68.7,59.1l-0.4-1.5l-0.4-1.5l0-0.1"/>
		<path class="st0" d="M67.9,55.9L67,57.2l-0.9,1.3l-0.9,1.3l-0.9,1.3l-0.9,1.3l-0.9,1.3L61.7,65l-0.9,1.3l-0.1,0.2l-1.4-0.7
			L57.9,65l-1.4-0.7l-1.4-0.7l-1.4-0.7l-1.4-0.7l-1.4-0.7l-1.4-0.7l-0.9-0.5"/>
		<path class="st0" d="M124.8,63.7l1.5-0.3l1.5-0.3l1.5-0.3l1.5-0.3l1.5-0.3l1.5-0.3l1-0.2"/>
		<path class="st0" d="M138.6,72l-0.5-1.5l-0.5-1.5l-0.5-1.5l-0.5-1.5l-0.5-1.5l-0.5-1.5l-0.5-1.5l1.3-0.9l1.3-0.9l1.3-0.9L140,58
			l1.3-0.9l1.3-0.9l1.3-0.9l0.8-0.6"/>
		<path class="st0" d="M139.6,83.1l-0.2-1.6l-0.2-1.6l-0.2-1.6l-0.2-1.6l-0.2-1.6l-0.2-1.6l-0.2-1.6l0-0.2l1.5-0.6l1.5-0.6l1.5-0.6
			l1.5-0.6l1.5-0.6l1.5-0.6l1.5-0.6l0.3-0.1l-0.5-1.5l-0.5-1.5l-0.5-1.5l-0.5-1.5l-0.5-1.5l-0.5-1.5l-0.5-1.5l-0.5-1.5l-0.5-1.4
			l-0.3-1.5l-0.3-1.5l-0.3-1.4"/>
		<path class="st0" d="M62.7,67.8l-1.3-0.9l-0.7-0.5"/>
		<path class="st0" d="M48.7,60.1l-0.5,1.5l-0.5,1.5l-0.5,1.5L46.6,66L46,67.5L45.5,69l-0.5,1.5l-0.5,1.5l-0.5,1.5l-0.5,1.5l-0.4,1
			l-1.5-0.5L40,74.9l-1.5-0.5L37,73.9l-1.5-0.5L34,72.9l-0.9-0.3"/>
		<path class="st0" d="M127.9,72.4l1.6,0l1.6,0l1.6,0l1.6,0l1.6,0l1.6,0l1.3,0"/>
		<path class="st0" d="M60.7,66.4l-0.5,1.5l-0.5,1.5l-0.5,1.5l-0.5,1.5L58,73.8l-0.5,1.5l-0.5,1.5l-0.5,1.5l-0.1,0.2l-1.5-0.3
			l-1.5-0.3l-1.5-0.3l-1.5-0.3l-1.5-0.3L47,76.6l-1.5-0.3L44,76l-1-0.2"/>
		<path class="st0" d="M59.1,77.7l-1.5,0.4l-1.3,0.3"/>
		<path class="st0" d="M118.9,108.1l-0.7,0.6l-1.1,1.1l-1.1,1.1l-1.1,1.1l-1.1,1.1l-1.1,1.1l-0.5,0.5l-1.4,0.8l-1.4,0.8l-1.4,0.8
			l-1.4,0.8l-1.4,0.8l-1.3,0.8l-1.5,0.4l-1.5,0.4l-1.5,0.4l-1.5,0.4l-1.5,0.4l-1.3,0.4l-1.6,0l-1.6,0l-1.6,0l-1.6,0l-1.6,0H86
			l-1.5-0.4l-1.5-0.4l-1.5-0.4l-1.5-0.4l-1.5-0.4l-1.2-0.3l-1.3-0.9l-1.3-0.9l-1.3-0.9l-1.3-0.9l-1.3-0.9l-1.1-0.7l-1-1.2l-1-1.2
			l-1-1.2l-1-1.2l-1-1.2l-1-1.2l-0.6-1.4l-0.6-1.4l-0.6-1.4l-0.6-1.4l-0.6-1.4l-0.6-1.4L59.6,98l-0.2-1.5l-0.2-1.5l-0.2-1.5
			l-0.2-1.5l-0.2-1.5l-0.2-1.5L58.1,88l0.2-1.6l0.2-1.6l0.2-1.6l0.2-1.6l0.2-1.6l0.2-1.6l0.1-1l0.5-1.5l0.5-1.5l0.5-1.5l0.5-1.5
			l0.5-1.5l0.5-1.5l0.4-1.1l0.9-1.3l0.9-1.3l0.9-1.3l0.9-1.3l0.9-1.3L68,60l0.6-0.9l1.2-1l1.2-1l1.2-1l1.2-1l1.2-1l1.2-1l0.7-0.6
			l1.4-0.7l1.4-0.7l1.4-0.7l1.4-0.7l1.4-0.7l1.4-0.7l0.5-0.3l1.5-0.3l1.5-0.3L90,47l1.5-0.3l1.5-0.3l1.5-0.3l0.2,0l1.6,0.2l1.6,0.2
			l1.6,0.2l1.6,0.2l1.6,0.2l1.5,0.1l1.5,0.6l1.5,0.6l1.5,0.6l1.5,0.6l1.5,0.6l1.2,0.5l1.2,1l1.2,1l1.2,1l1.2,1l1.2,1l0.9,0.8
			l0.9,1.3l0.9,1.3l0.9,1.3l0.9,1.3l0.9,1.3l0.7,1l0.5,1.5l0.5,1.5l0.5,1.5l0.5,1.5l0.5,1.5l0.5,1.3l0.2,1.6l0.2,1.6l0.2,1.6
			l0.2,1.6l0.2,1.6l0.2,1.5l0,0.1"/>
		<path class="st0" d="M127.6,91.2l0.2-1.5l0.2-1.5l0.2-1.5l0.2-1.5l0.2-1.5l0.2-1.5l0-0.1l1.5,0.2l1.5,0.2l1.5,0.2l1.5,0.2l1.5,0.2
			l1.5,0.2l1.4,0.2"/>
		<path class="st0" d="M43,75.9l-0.1,1.6L42.7,79l-0.1,1.6l-0.1,1.6l-0.1,1.6l-0.1,1.6l-0.1,1.6l-0.1,1.6l-0.1,1.6l-0.1,1.6
			l-0.1,0.8L39.9,92l-1.5-0.3l-1.5-0.3l-1.5-0.3l-1.5-0.3l-1.5-0.3l-0.7-0.1"/>
		<path class="st0" d="M138.1,94.4l0.2-1.5l0.2-1.5l0.2-1.5l0.2-1.5l0.2-1.5l0.2-1.5l0.2-1.5l0-0.4l1.6-0.1l1.6-0.1l1.6-0.1l1.6-0.1
			l1.6-0.1l1.6-0.1l1.4-0.1"/>
		<path class="st0" d="M56.3,78.4L56.1,80L56,81.6l-0.2,1.6l-0.2,1.6l-0.2,1.6l-0.2,1.6l-0.2,1.6L55,91l-1.6,0.1l-1.6,0.1l-1.6,0.1
			l-1.6,0.1l-1.6,0.1l-1.6,0.1L44.1,92l-1.6,0.1l-1.1,0.1"/>
		<path class="st0" d="M80.1,145.8l1.6,0l1.6,0l1.6,0l1.6,0l1.6,0l1.6,0l1.6,0l1.6,0l1.6,0l0.9,0l1.5-0.5l1.5-0.5l1.5-0.5l1.5-0.5
			l1.5-0.5l1.5-0.5l1.5-0.5l1.5-0.5l1.5-0.5l1-0.3l1.3-0.8l1.3-0.8l1.3-0.8l1.3-0.8l1.3-0.8l1.3-0.8l1.3-0.8l1.3-0.8l1.3-0.8l1-0.6
			l1.3-0.8l1-0.6l1.1-1.1l1.1-1.1l1.1-1.1l1.1-1.1l1.1-1.1l1.1-1.1l1.1-1.1l1.1-1.1l1.1-1.1l0.2-0.1l0.9-1.3l0.9-1.3l0.9-1.3
			l0.9-1.3l0.9-1.3l0.9-1.3l0.9-1.3l0.9-1.3l0.9-1.3l0.2-0.3l0.6-1.5l0.6-1.5l0.6-1.5l0.6-1.5l0.6-1.5l0.6-1.5l0.6-1.5l0.6-1.5
			l0.6-1.5l0.1-0.3l0.2-1.5l0.2-1.5l0.2-1.5l0.2-1.5l0.2-1.5l0.2-1.5l0.2-1.5l0.2-1.5l0.2-1.5l0-0.3l-0.1-1.6l-0.1-1.6l-0.1-1.6
			l-0.1-1.6l-0.1-1.6l-0.1-1.6l-0.1-1.6l-0.1-1.6l-0.1-1.7l-0.2-1.5l-0.2-1.5l0-0.3l-0.5-1.5l-0.5-1.5l-0.5-1.5l-0.5-1.5l-0.5-1.5
			l-0.5-1.5l-0.5-1.5l-0.5-1.5l-0.5-1.5l-0.3-1l-0.9-1.3l-0.9-1.3l-0.9-1.3l-0.9-1.3l-0.9-1.3l-0.9-1.3l-0.9-1.3l-0.9-1.3l-0.9-1.3
			l-0.5-0.8l-1.2-1l-1.2-1l-1.2-1l-1.2-1l-1.2-1l-1.2-1l-1.2-1l-1.2-1l-1.2-1l-0.7-0.6l-1.4-0.6l-1.4-0.6l-1.4-0.6l-1.4-0.6
			l-1.4-0.6l-1.4-0.6l-1.4-0.6l-1.4-0.6l-1.4-0.6l-1-0.5l-1.5-0.2l-1.5-0.2l-1.5-0.2l-1.5-0.2l-1.5-0.2l-1.5-0.2L99.6,20l-1.5-0.2
			l-1.5-0.2l-1.6-0.2l-1.5,0.2l-1.5,0.2l-1.5,0.2l-1.5,0.2l-1.5,0.2l-1.5,0.2l-1.5,0.2l-1.5,0.2L81,21.6l-1.5,0.2l-0.7,0.1l-1.4,0.7
			l-1.4,0.7l-1.4,0.7l-1.4,0.7l-1.4,0.7l-1.4,0.7l-1.4,0.7l-1.4,0.7L66,27.9l-1.4,0.7l-1.3,0.6l-1.2,1l-1.2,1l-1.2,1l-1.2,1l-1.2,1
			l-1.2,1l-1.2,1l-1.2,1l-1.2,1l-1.2,1l-1.2,1l-0.4,0.3L49,41.8l-0.9,1.3l-0.9,1.3l-0.9,1.3L45.4,47l-0.9,1.3l-0.9,1.3l-0.9,1.3
			l-0.9,1.3L41,53.4l-0.9,1.3l-0.5,0.7L39,56.9l-0.5,1.5l-0.5,1.5l-0.5,1.5l-0.5,1.5l-0.5,1.5l-0.5,1.5l-0.5,1.5l-0.5,1.5l-0.5,1.5
			l-0.5,1.5l-0.3,0.9l-0.1,1.6L33,75.7l-0.1,1.6l-0.1,1.6l-0.1,1.6l-0.1,1.6l-0.1,1.6L32.2,85L32,86.6l-0.1,1.6l-0.1,1.6l-0.1,0.6
			l0.3,1.5l0.3,1.5l0.3,1.5l0.3,1.5L33,98l0.3,1.5l0.3,1.5l0.3,1.5l0.3,1.5l0.3,1.5l0.3,1.6l0.7,1.4l0.7,1.4l0.7,1.4l0.7,1.4
			l0.7,1.4l0.7,1.4l0.7,1.4l0.7,1.4l0.7,1.4l0.7,1.4l0.4,0.8l1,1.2l1,1.2l1,1.2l1,1.2l1,1.2l1,1.2l1,1.2l1,1.2l1,1.2l1,1.2l0.1,0.2
			l1.3,0.8l1.3,0.8l1.3,0.8l1.3,0.8l1.3,0.8l1.3,0.8l1.3,0.8l1.3,0.8l1.3,0.8l1.1,0.6l1.5,0.4l1.5,0.4l1.5,0.4l1.5,0.4l1.5,0.4
			l1.5,0.4l1.5,0.4l1.5,0.4l1.5,0.4L80.1,145.8"/>
		<path class="st0" d="M58,88l-1.1,1.1l-1.1,1.1L55,91"/>
		<path class="st0" d="M127.6,91.2l1.5,0.5l1.5,0.5l1.5,0.5l1.5,0.5l1.5,0.5l1.5,0.5l1.5,0.5"/>
		<path class="st0" d="M127.7,90.1l-0.1,1.1l-0.5,1.5l-0.5,1.5l-0.5,1.5l-0.5,1.5l-0.5,1.5l-0.5,1.5l-0.1,0.2"/>
		<path class="st0" d="M128.9,81.6l-0.2,1.5l-0.2,1.5l-0.2,1.5l-0.2,1.5l-0.2,1.5l-0.1,0.7l-0.5,1.5l-0.5,1.5l-0.5,1.5l-0.5,1.5
			l-0.5,1.5l-0.5,1.5l-0.5,1.3l-0.9,1.3l-0.9,1.3l-0.9,1.3l-0.9,1.3l-0.9,1.3l-0.9,1.3l-0.5,0.7"/>
		<path class="st0" d="M134,105l0.5-1.5l0.5-1.5l0.5-1.5l0.5-1.5l0.5-1.5l0.5-1.5l0.5-1.5l0.2-0.4l1.5,0.3l1.5,0.3l1.5,0.3l1.5,0.3
			l1.5,0.3l1.5,0.3l1,0.2"/>
		<path class="st0" d="M59.6,98l-0.7,1.4l-0.7,1.4l-0.7,1.4l-0.4,0.8"/>
		<path class="st0" d="M55,91l0.2,1.5l0.2,1.5l0.2,1.5l0.2,1.5l0.2,1.5l0.2,1.5l0.2,1.5l0.2,1.2l-1.5,0.6l-1.5,0.6l-1.5,0.6
			l-1.5,0.6l-1.5,0.6l-1.5,0.6l-1.5,0.6l-1.5,0.6L44,108"/>
		<path class="st0" d="M41.4,92.2l0.3,1.5l0.3,1.5l0.3,1.5l0.3,1.5l0.3,1.5l0.3,1.5l0.3,1.5l0.3,1.5l0.3,1.5l0.3,1.5l0,0.2l-1.6-0.1
			l-1.6-0.1l-1.6-0.1l-1.6-0.1l-1.6-0.1l-1.6-0.1l-0.2,0"/>
		<path class="st0" d="M124.2,100.1l1.4,0.7l1.4,0.7l1.4,0.7l1.4,0.7l1.4,0.7l1.4,0.7l1.4,0.7"/>
		<path class="st0" d="M123.9,100.2l0.3-0.1l-0.9,1.3l-0.9,1.3l-0.9,1.3l-0.9,1.3l-0.9,1.3L119,108l-0.1,0.1l1.3,0.9l1.3,0.9
			l1.3,0.9l1.3,0.9l1.3,0.9l1.3,0.9l1.2,0.9"/>
		<path class="st0" d="M127.8,114.5l0.9-1.3l0.9-1.3l0.9-1.3l0.9-1.3l0.9-1.3l0.9-1.3l0.9-1.3l0.2-0.4l1.4,0.7l1.4,0.7l1.4,0.7
			l1.4,0.7l1.4,0.7l1.4,0.7l0.9,0.5"/>
		<path class="st0" d="M63.6,106.9l-0.4,1.5l-0.4,1.5l-0.4,1.5L62,113l-0.2,0.7"/>
		<path class="st0" d="M56.9,103l0.7,1.4l0.7,1.4l0.7,1.4l0.7,1.4l0.7,1.4l0.7,1.4l0.7,1.4l0.3,0.7l-1.3,0.9l-1.3,0.9l-1.3,0.9
			l-1.3,0.9l-1.3,0.9l-1.3,0.9l-1.3,0.9l-1.3,0.9l-1,0.7"/>
		<path class="st0" d="M44,107.9l0.7,1.4l0.7,1.4l0.7,1.4l0.7,1.4l0.7,1.4l0.7,1.4l0.7,1.4l0.7,1.4l0.7,1.4l0.5,1l-1.6,0.1l-1.6,0.1
			l-1.6,0.1l-1.6,0.1l-1.6,0.1l-1,0.1"/>
		<path class="st0" d="M69.7,114.1l-0.1,1.6l-0.1,1.6l-0.1,1.6l-0.1,1.6l-0.1,1.6l0,0.3"/>
		<path class="st0" d="M112,114.6l1.1,1.1l1.1,1.1l1.1,1.1l1.1,1.1l1.1,1.1l1.1,1.1l1,1"/>
		<path class="st0" d="M119.6,122.3l1.1-1.1l1.1-1.1l1.1-1.1l1.1-1.1l1.1-1.1l1.1-1.1l1.1-1.1l0.2-0.2l1.1,1.1l1.1,1.1l1.1,1.1
			l1.1,1.1l1.1,1.1l1.1,1.1l0.8,0.8"/>
		<path class="st0" d="M61.8,113.7l1,1.2l1,1.2l1,1.2l1,1.2l1,1.2l1,1.2l1,1.2l0.2,0.2l-1,1.2l-1,1.2l-1,1.2l-1,1.2l-1,1.2l-1,1.2
			l-1,1.2l-1,1.2l-0.7,0.8"/>
		<path class="st0" d="M78.3,128l-0.2-1.6l-0.2-1.6l-0.2-1.6l-0.2-1.6l-0.2-1.6l-0.1-1.2"/>
		<path class="st0" d="M103.9,119.2l0.9,1.3l0.9,1.3l0.9,1.3l0.9,1.3l0.9,1.3l0.9,1.3l0.7,1"/>
		<path class="st0" d="M69.1,122.2l1.3,0.8l1.3,0.8l1.3,0.8l1.3,0.8l1.3,0.8l1.3,0.8l1.3,0.8"/>
		<path class="st0" d="M99.5,130.9l-0.7-1.4l-0.7-1.4l-0.7-1.4l-0.7-1.4l-0.7-1.4l-0.7-1.4l-0.4-0.8"/>
		<path class="st0" d="M86,121.6l0.4,1.5l0.4,1.5l0.4,1.5l0.4,1.5l0.4,1.5l0.4,1.5l0.1,0.3"/>
		<path class="st0" d="M50.5,121.6l1,1.2l1,1.2l1,1.2l1,1.2l1,1.2l1,1.2l1,1.2l1,1.2l1,1.2l0.3,0.4l-1.5,0.3l-1.5,0.3l-1.5,0.3
			l-1.5,0.3l-1.5,0.3l-0.2,0"/>
		<path class="st0" d="M110,127.9l1.3-0.8l1.3-0.8l1.3-0.8l1.3-0.8l1.3-0.8l1.3-0.8l1.3-0.8l0.1-0.1l0.8,1.4l0.8,1.4l0.8,1.4
			l0.8,1.4l0.8,1.4l0.8,1.4l0.8,1.4l-1.3,0.8l-1.3,0.8l-1.3,0.8l-1.3,0.8l-1.3,0.8l-1.3,0.8l-1.3,0.8l-1.3,0.8l-1.4,0.8l-0.4-1.5
			L112,136l-0.4-1.5l-0.4-1.5l-0.4-1.5l-0.4-1.5l-0.4-1.5L110,127.9"/>
		<path class="st0" d="M88.7,131l1.6,0l1.6,0l1.6,0l1.6,0l1.6,0l1.6,0l1.4,0"/>
		<path class="st0" d="M99.5,143v-1.6v-1.6v-1.6v-1.6v-1.6v-1.6V132v-1.2l1.5-0.4l1.5-0.4l1.5-0.4l1.5-0.4l1.5-0.4l1.5-0.4l1.5-0.4"
			/>
		<path class="st0" d="M72.3,139.8l0.7-1.4l0.7-1.4l0.7-1.4l0.7-1.4l0.7-1.4l0.7-1.4l0.7-1.4l0.7-1.4l0.3-0.7l1.5,0.4l1.5,0.4
			l1.5,0.4l1.5,0.4l1.5,0.4l1.5,0.4l1.3,0.4l-0.4,1.5L88,134l-0.4,1.5l-0.4,1.5l-0.4,1.5l-0.4,1.5l-0.4,1.5l-0.4,1.5l-0.1,0.2"/>
		<path class="st0" d="M60.2,132.5l1.3,0.8l1.3,0.8l1.3,0.8l1.3,0.8l1.3,0.8l1.3,0.8l1.3,0.8l1.3,0.8l1.3,0.8l-1.5,0.5l-1.5,0.5
			l-1.5,0.5l-1.5,0.5l-0.8,0.2"/>
		<path class="st0" d="M109.6,141l1.3-0.8l1.3-0.8l0.6-0.4"/>
		<path class="st0" d="M95.1,145.3l1.4-0.7l1.4-0.7l1.4-0.7l0.2-0.1l1.5-0.5l1.5-0.5l1.5-0.5l1.5-0.5l1.5-0.5l1.5-0.5l1.5-0.5
			l1.5-0.5l1.4-0.4"/>
		<path class="st0" d="M72.3,139.8l1.5,0.4l1.5,0.4l1.5,0.4l1.5,0.4l1.5,0.4l1.5,0.4l1.5,0.4l1.5,0.4l1.3,0.3l-1.4,0.6l-1.4,0.6
			l-1.4,0.6l-1.2,0.5"/>
		<path class="st0" d="M85.7,143.4l1.6,0l1.6,0l1.6,0l1.6,0l1.6,0l1.6,0l1.6,0l1.6,0l1.3,0"/>
	</g>
</g>
</svg>
