<?xml version="1.0" encoding="utf-8"?>
<!-- Generator: Adobe Illustrator 26.0.3, SVG Export Plug-In . SVG Version: 6.00 Build 0)  -->
<svg version="1.1" id="Layer_1" xmlns="http://www.w3.org/2000/svg" xmlns:xlink="http://www.w3.org/1999/xlink"
	 style="enable-background:new 0 0 287.5 69.7;" xml:space="preserve">
<style type="text/css">
	.st0{fill:#FFFFFF;stroke:#000000;stroke-miterlimit:10;}
	.st1{fill:none;stroke:#000000;stroke-miterlimit:10;}
</style>
<path class="st0" d="M472.7-108.3"/>
<path class="st1" d="M2.7,4C11,56.7,15.9,67,18.8,66.8c2.8-0.2,6.2-10.7,7.9-60.3"/>
<path class="st1" d="M34.1,0.5c0.4,20.6,0.7,41.3,1.1,61.9"/>
<path class="st1" d="M40.9,46.1c16.7,4.2,22.2,2.7,23.6,0c3.7-7.3-21.3-25.4-17.2-34.5c2.1-4.7,11.1-5.1,19.5-4.4"/>
<path class="st1" d="M71.6,0.5c-2.9,35.6-0.9,54.5,6,56.8c4.5,1.5,11.1-4.2,19.8-17.1"/>
<path class="st1" d="M62.6,23.9c5.2-2.4,10.5-4.8,15.7-7.1"/>
<path class="st1" d="M122.1,18.9c6.2-3.3,24.7-12.6,30.8-6c8.7,9.4-10.2,48.6-18.8,46.9c-3.6-0.7-6.6-8.7-4.3-12.4
	c3.7-5.9,20.6-1.1,34.7,4.1"/>
<path class="st1" d="M187.5,6.1c-10.1-1.2-27.2,38.2-18.8,47.3c4.8,5.2,18.9,1.6,25.9-7.5C206,31.2,195.1,7,187.5,6.1z"/>
<path class="st1" d="M205.5,8.4c23.5-4.7,29.4-0.3,31.2,3c7.4,13.4-27.8,54.1-33.3,50.7c-2.1-1.3-1.1-9.7,3.2-13.9
	c9.5-9.1,32.6,5.1,34,6"/>
<path class="st1" d="M243.4,13.1c26.6-10.4,33.4-7.1,35.4-4.1c7.3,10.6-20.3,51.3-30.1,47.7c-3.6-1.3-5.7-9-3.2-12.8
	c3.9-6,19.4-2.2,36.1,4.1"/>
</svg>
