<svg width="1800" height="428" fill="none" xmlns="http://www.w3.org/2000/svg">
<path d="M0 22.5933C53.5784 362.784 85.209 429.273 103.929 427.982C122.004 426.691 143.952 358.911 154.926 38.7314" stroke="black" stroke-miterlimit="10"/>
<path d="M202.694 0C205.276 132.978 207.213 266.601 209.795 399.579" stroke="black" stroke-miterlimit="10"/>
<path d="M246.59 294.359C354.392 321.471 389.896 311.788 398.933 294.359C422.818 247.235 261.437 130.396 287.903 71.6531C301.459 41.3135 359.556 38.7314 413.78 43.2501" stroke="black" stroke-miterlimit="10"/>
<path d="M444.765 0C426.045 229.806 438.956 351.81 483.497 366.657C512.545 376.34 555.15 339.545 611.31 256.273" stroke="black" stroke-miterlimit="10"/>
<path d="M386.668 151.052C420.235 135.56 454.448 120.067 488.015 105.22" stroke="black" stroke-miterlimit="10"/>
<path d="M770.754 118.776C810.777 97.4741 930.198 37.4404 969.575 80.0449C1025.74 140.724 903.732 393.769 848.217 382.795C824.978 378.277 805.613 326.635 820.46 302.75C844.344 264.665 953.437 295.65 1044.46 329.217" stroke="black" stroke-miterlimit="10"/>
<path d="M1192.93 36.1492C1127.73 28.4029 1017.34 282.739 1071.57 341.482C1102.55 375.049 1193.57 351.81 1238.76 293.067C1312.35 198.175 1241.99 41.9589 1192.93 36.1492Z" stroke="black" stroke-miterlimit="10"/>
<path d="M1309.12 50.9963C1460.82 20.6568 1498.9 49.0598 1510.52 70.362C1558.29 156.862 1331.07 419.59 1295.56 397.642C1282.01 389.25 1288.46 335.026 1316.22 307.914C1377.55 249.172 1526.66 340.836 1535.7 346.646" stroke="black" stroke-miterlimit="10"/>
<path d="M1553.77 81.3359C1725.48 14.2015 1769.38 35.5038 1782.29 54.8695C1829.41 123.295 1651.25 386.023 1587.99 362.784C1564.75 354.392 1551.19 304.687 1567.33 280.157C1592.51 241.426 1692.56 265.955 1800.36 306.623" stroke="black" stroke-miterlimit="10"/>
</svg>
