<svg id="Layer_2" data-name="Layer 2" xmlns="http://www.w3.org/2000/svg">
  <defs>
    <style>
      .cls-1 {
        fill: none;
        stroke: #000;
        stroke-miterlimit: 10;
        stroke-width: 0.25px;
      }
    </style>
  </defs>
  <title>nadya-sig</title>
  <path class="cls-1" d="M31.5,86.5s3-36,7-38,10,29,10,35,7,20,8,17,5-46,6-49,3-13,8-7" transform="translate(0.13 0.13)"/>
  <path class="cls-1" d="M77.5,99.5s-4-8-3-16,6-24,9-24,9,21,9,26,6,24,8,25" transform="translate(0.13 0.13)"/>
  <path class="cls-1" d="M73.5,81.5s31,1,35,2" transform="translate(0.13 0.13)"/>
  <path class="cls-1" d="M114.5,76.5s5.62,11.81,7.17,20.67c.52,3,.58,5.58-.17,7.33-3,7-7,0-7-5s0-33,5-39,11-11,17-4,9,21,8,31-12,14-15,15-11-6-11-8,6-6,8-7" transform="translate(0.13 0.13)"/>
  <path class="cls-1" d="M145.5,61.5s7,4,8,10,4,10,8,10,9-3,11-7,4-13,4-13" transform="translate(0.13 0.13)"/>
  <path class="cls-1" d="M166.5,85.5c-1,4-5,10-3,18,.34,1.37,4,5,4,5" transform="translate(0.13 0.13)"/>
  <path class="cls-1" d="M176.5,108.5s16-34,20-38,5,9,6,14,7,19,9,21" transform="translate(0.13 0.13)"/>
  <path class="cls-1" d="M183.5,89.5c4,1,15,0,15,0" transform="translate(0.13 0.13)"/>
  <path class="cls-1" d="M296.5,59.5v48s-10-33-6-54,12-23,20-16,10,17,6,25-6,14-12,16a35,35,0,0,1-10,2" transform="translate(0.13 0.13)"/>
  <path class="cls-1" d="M346.5,95.5s-9,1-14,0-10-8-11-14,5-20,5-20,35-11,39-9,0,5,0,8c0,2.16-3.12,13.18-3.36,21.4-.09,3.17.25,5.93,1.36,7.6,4,6,9,7,14,5a15.64,15.64,0,0,0,7-5" transform="translate(0.13 0.13)"/>
  <line class="cls-1" x1="345.63" y1="75.63" x2="328.63" y2="83.63"/>
  <path class="cls-1" d="M382.5,75.5s-8,2-13,5-7,1-7,1" transform="translate(0.13 0.13)"/>
  <path class="cls-1" d="M394.5,57.5s-23,2-29,3" transform="translate(0.13 0.13)"/>
  <path class="cls-1" d="M416.5,47.5s-2,16-2,21-3,16,1,18,23-18,23-18-12,17-12,23,3,8,6,10,10,0,13-1a29.54,29.54,0,0,0,6-3" transform="translate(0.13 0.13)"/>
</svg>
