<svg id="Layer_1" data-name="Layer 1" xmlns="http://www.w3.org/2000/svg" width="275mm" height="200mm" viewBox="0 0 275 200">
<title>wave</title>
	<path d="M0,34.6c5.8,2,8.6,1.2,10.1,0c2-1.5,1.6-3.5,4-8.1c1.7-3.1,3.8-7.1,6.1-7.1c4,0.1,6.8,13.5,7.1,15.2
		c2.6,13.3-0.2,21.9,3,23.3c1.8,0.8,4.6-1.1,6.1-3c3.1-4,0.7-9-1-21.3c-1.5-10.5-2.3-16.8,1-19.2c2.5-1.8,6.8-1.1,9.1,1
		c2,1.9,1.8,4.3,2,12.1c0.4,14.6,1.2,16,2,16.2c1.4,0.4,3.8-2.5,5.1-5.1c3.3-6.9-0.7-13.4,2-15.2c1.3-0.9,3.7-0.2,5.1,1
		c4.3,3.7,0.3,12.7,3,14.2c0.9,0.5,2.6,0.2,6.1-3"/>
</svg>
